<svg width="24" height="24" viewBox="0 0 24 24" fill="none" xmlns="http://www.w3.org/2000/svg">
<path d="M21.75 4.5H7.125V3.75C7.125 3.45163 7.00647 3.16548 6.7955 2.9545C6.58452 2.74353 6.29837 2.625 6 2.625H4.5C3.60489 2.625 2.74645 2.98058 2.11351 3.61351C1.48058 4.24645 1.125 5.10489 1.125 6V16.5C1.125 17.3951 1.48058 18.2535 2.11351 18.8865C2.74645 19.5194 3.60489 19.875 4.5 19.875H21.75C22.0484 19.875 22.3345 19.7565 22.5455 19.5455C22.7565 19.3345 22.875 19.0484 22.875 18.75V5.625C22.875 5.32663 22.7565 5.04048 22.5455 4.8295C22.3345 4.61853 22.0484 4.5 21.75 4.5ZM3.375 6C3.375 5.70163 3.49353 5.41548 3.7045 5.2045C3.91548 4.99353 4.20163 4.875 4.5 4.875H4.875V13.125H4.5C4.11669 13.1243 3.73613 13.1896 3.375 13.3181V6ZM20.625 17.625H4.5C4.20163 17.625 3.91548 17.5065 3.7045 17.2955C3.49353 17.0845 3.375 16.7984 3.375 16.5C3.375 16.2016 3.49353 15.9155 3.7045 15.7045C3.91548 15.4935 4.20163 15.375 4.5 15.375H6C6.29837 15.375 6.58452 15.2565 6.7955 15.0455C7.00647 14.8345 7.125 14.5484 7.125 14.25V6.75H20.625V17.625ZM9.75 12.75C9.45163 12.75 9.16548 12.8685 8.9545 13.0795C8.74353 13.2905 8.625 13.5766 8.625 13.875C8.625 14.1734 8.74353 14.4595 8.9545 14.6705C9.16548 14.8815 9.45163 15 9.75 15H10.875V15.375C10.875 15.6734 10.9935 15.9595 11.2045 16.1705C11.4155 16.3815 11.7016 16.5 12 16.5C12.2984 16.5 12.5845 16.3815 12.7955 16.1705C13.0065 15.9595 13.125 15.6734 13.125 15.375V15H14.625V15.375C14.625 15.6734 14.7435 15.9595 14.9545 16.1705C15.1655 16.3815 15.4516 16.5 15.75 16.5C16.0484 16.5 16.3345 16.3815 16.5455 16.1705C16.7565 15.9595 16.875 15.6734 16.875 15.375V15H18C18.2984 15 18.5845 14.8815 18.7955 14.6705C19.0065 14.4595 19.125 14.1734 19.125 13.875C19.125 13.5766 19.0065 13.2905 18.7955 13.0795C18.5845 12.8685 18.2984 12.75 18 12.75H16.875V11.625H18C18.2984 11.625 18.5845 11.5065 18.7955 11.2955C19.0065 11.0845 19.125 10.7984 19.125 10.5C19.125 10.2016 19.0065 9.91548 18.7955 9.7045C18.5845 9.49353 18.2984 9.375 18 9.375H16.875V9C16.875 8.70163 16.7565 8.41548 16.5455 8.2045C16.3345 7.99353 16.0484 7.875 15.75 7.875C15.4516 7.875 15.1655 7.99353 14.9545 8.2045C14.7435 8.41548 14.625 8.70163 14.625 9V9.375H13.125V9C13.125 8.70163 13.0065 8.41548 12.7955 8.2045C12.5845 7.99353 12.2984 7.875 12 7.875C11.7016 7.875 11.4155 7.99353 11.2045 8.2045C10.9935 8.41548 10.875 8.70163 10.875 9V9.375H9.75C9.45163 9.375 9.16548 9.49353 8.9545 9.7045C8.74353 9.91548 8.625 10.2016 8.625 10.5C8.625 10.7984 8.74353 11.0845 8.9545 11.2955C9.16548 11.5065 9.45163 11.625 9.75 11.625H10.875V12.75H9.75ZM13.125 11.625H14.625V12.75H13.125V11.625Z" fill="#482477"/>
</svg>
