<svg width="20" height="20" viewBox="0 0 20 20" fill="none" xmlns="http://www.w3.org/2000/svg">
<path d="M7.94229 3.30783L14.1923 9.55783C14.2504 9.61588 14.2965 9.68481 14.328 9.76068C14.3594 9.83656 14.3756 9.91788 14.3756 10C14.3756 10.0822 14.3594 10.1635 14.328 10.2394C14.2965 10.3152 14.2504 10.3842 14.1923 10.4422L7.94229 16.6922C7.82502 16.8095 7.66596 16.8754 7.5001 16.8754C7.33425 16.8754 7.17519 16.8095 7.05792 16.6922C6.94064 16.5749 6.87476 16.4159 6.87476 16.25C6.87476 16.0842 6.94064 15.9251 7.05792 15.8078L12.8665 10L7.05792 4.19221C6.99985 4.13414 6.95378 4.0652 6.92236 3.98933C6.89093 3.91346 6.87476 3.83214 6.87476 3.75002C6.87476 3.6679 6.89093 3.58658 6.92236 3.51071C6.95378 3.43484 6.99985 3.3659 7.05792 3.30783C7.11598 3.24976 7.18492 3.2037 7.26079 3.17227C7.33666 3.14085 7.41798 3.12467 7.5001 3.12467C7.58223 3.12467 7.66354 3.14085 7.73941 3.17227C7.81528 3.2037 7.88422 3.24976 7.94229 3.30783Z" fill="#211F25"/>
</svg>
