<svg width="24" height="24" viewBox="0 0 24 24" fill="none" xmlns="http://www.w3.org/2000/svg">
<path d="M14.2884 8.30252L5.88841 16.5525C5.67803 16.7592 5.3949 16.875 5.09998 16.875C4.80505 16.875 4.52192 16.7592 4.31154 16.5525L0.711537 13.0172C0.498577 12.8081 0.377406 12.523 0.374681 12.2245C0.373331 12.0767 0.401102 11.9301 0.456406 11.7931C0.511711 11.6561 0.593467 11.5312 0.697006 11.4258C0.800545 11.3204 0.92384 11.2363 1.05985 11.1785C1.19586 11.1207 1.34192 11.0903 1.4897 11.0889C1.78815 11.0862 2.07545 11.2022 2.28841 11.4113L5.10091 14.1731L12.7125 6.69752C12.9253 6.48841 13.2125 6.37242 13.5109 6.37506C13.8092 6.37769 14.0943 6.49874 14.3034 6.71158C14.5125 6.92442 14.6285 7.2116 14.6259 7.50996C14.6232 7.80832 14.5022 8.09341 14.2893 8.30252H14.2884ZM23.3025 6.70877C23.1989 6.60296 23.0754 6.51864 22.9392 6.46065C22.8029 6.40266 22.6566 6.37214 22.5085 6.37083C22.3605 6.36953 22.2136 6.39746 22.0763 6.45304C21.9391 6.50862 21.8142 6.59074 21.7087 6.69471L14.1 14.1731L13.3612 13.4475C13.1484 13.2384 12.8612 13.1224 12.5628 13.1251C12.2645 13.1277 11.9794 13.2487 11.7703 13.4616C11.5612 13.6744 11.4452 13.9616 11.4478 14.26C11.4505 14.5583 11.5715 14.8434 11.7843 15.0525L13.3115 16.5525C13.5219 16.7592 13.805 16.875 14.1 16.875C14.3949 16.875 14.678 16.7592 14.8884 16.5525L23.2884 8.30252C23.3938 8.19898 23.4778 8.0757 23.5355 7.93971C23.5932 7.80372 23.6236 7.65769 23.6249 7.50996C23.6262 7.36223 23.5984 7.21569 23.5431 7.0787C23.4878 6.94171 23.406 6.81697 23.3025 6.71158V6.70877Z" fill="#482477"/>
</svg>
