<svg width="14" height="14" viewBox="0 0 14 14" fill="none" xmlns="http://www.w3.org/2000/svg">
<g clip-path="url(#clip0_92_57)">
<path d="M13.125 6.34375H11.9886C11.8423 5.24613 11.3388 4.22718 10.5558 3.44419C9.77282 2.6612 8.75387 2.15769 7.65625 2.01141V0.875C7.65625 0.700952 7.58711 0.534032 7.46404 0.410961C7.34097 0.28789 7.17405 0.21875 7 0.21875C6.82595 0.21875 6.65903 0.28789 6.53596 0.410961C6.41289 0.534032 6.34375 0.700952 6.34375 0.875V2.01141C5.24613 2.15769 4.22718 2.6612 3.44419 3.44419C2.6612 4.22718 2.15769 5.24613 2.01141 6.34375H0.875C0.700952 6.34375 0.534032 6.41289 0.410961 6.53596C0.28789 6.65903 0.21875 6.82595 0.21875 7C0.21875 7.17405 0.28789 7.34097 0.410961 7.46404C0.534032 7.58711 0.700952 7.65625 0.875 7.65625H2.01141C2.15769 8.75387 2.6612 9.77282 3.44419 10.5558C4.22718 11.3388 5.24613 11.8423 6.34375 11.9886V13.125C6.34375 13.299 6.41289 13.466 6.53596 13.589C6.65903 13.7121 6.82595 13.7812 7 13.7812C7.17405 13.7812 7.34097 13.7121 7.46404 13.589C7.58711 13.466 7.65625 13.299 7.65625 13.125V11.9886C8.75387 11.8423 9.77282 11.3388 10.5558 10.5558C11.3388 9.77282 11.8423 8.75387 11.9886 7.65625H13.125C13.299 7.65625 13.466 7.58711 13.589 7.46404C13.7121 7.34097 13.7812 7.17405 13.7812 7C13.7812 6.82595 13.7121 6.65903 13.589 6.53596C13.466 6.41289 13.299 6.34375 13.125 6.34375ZM7 10.7188C6.2645 10.7188 5.54552 10.5006 4.93397 10.092C4.32243 9.68341 3.84579 9.10262 3.56432 8.4231C3.28286 7.74359 3.20922 6.99587 3.3527 6.27451C3.49619 5.55314 3.85037 4.89052 4.37045 4.37045C4.89052 3.85037 5.55314 3.49619 6.27451 3.3527C6.99587 3.20922 7.74359 3.28286 8.4231 3.56432C9.10262 3.84579 9.68341 4.32243 10.092 4.93397C10.5006 5.54552 10.7188 6.2645 10.7188 7C10.7177 7.98596 10.3256 8.93125 9.62843 9.62843C8.93125 10.3256 7.98596 10.7177 7 10.7188ZM7 4.59375C6.52409 4.59375 6.05887 4.73487 5.66316 4.99928C5.26745 5.26368 4.95904 5.63948 4.77692 6.07917C4.59479 6.51885 4.54714 7.00267 4.63999 7.46944C4.73283 7.9362 4.962 8.36496 5.29852 8.70148C5.63504 9.038 6.0638 9.26717 6.53056 9.36001C6.99733 9.45286 7.48115 9.40521 7.92083 9.22309C8.36052 9.04096 8.73632 8.73255 9.00072 8.33684C9.26513 7.94113 9.40625 7.47591 9.40625 7C9.40553 6.36204 9.15178 5.75043 8.70068 5.29932C8.24957 4.84822 7.63796 4.59447 7 4.59375ZM7 8.09375C6.78368 8.09375 6.57221 8.0296 6.39234 7.90942C6.21248 7.78924 6.07229 7.61842 5.98951 7.41856C5.90672 7.2187 5.88506 6.99879 5.92727 6.78662C5.96947 6.57445 6.07364 6.37957 6.2266 6.2266C6.37957 6.07364 6.57445 5.96947 6.78662 5.92727C6.99879 5.88506 7.2187 5.90672 7.41856 5.98951C7.61842 6.07229 7.78924 6.21248 7.90942 6.39234C8.0296 6.57221 8.09375 6.78368 8.09375 7C8.09375 7.29008 7.97852 7.56828 7.7734 7.7734C7.56828 7.97852 7.29008 8.09375 7 8.09375Z" fill="#49454F"/>
</g>
<defs>
<clipPath id="clip0_92_57">
<rect width="14" height="14" fill="white"/>
</clipPath>
</defs>
</svg>
