<svg width="22" height="22" viewBox="0 0 22 22" fill="none" xmlns="http://www.w3.org/2000/svg">
<path d="M21.5602 11.2444C21.5602 10.34 21.4868 9.67998 21.328 8.99554H11.0002V13.0777H17.0624C16.9402 14.0922 16.2802 15.62 14.8135 16.6466L14.793 16.7833L18.0584 19.313L18.2847 19.3355C20.3624 17.4166 21.5602 14.5933 21.5602 11.2444Z" fill="#4285F4"/>
<path d="M11.0001 22C13.9701 22 16.4634 21.0222 18.2846 19.3356L14.8134 16.6466C13.8846 17.2944 12.6379 17.7466 11.0001 17.7466C8.09127 17.7466 5.62241 15.8278 4.74232 13.1756L4.61332 13.1866L1.21787 15.8143L1.17346 15.9378C2.98233 19.5311 6.69789 22 11.0001 22Z" fill="#34A853"/>
<path d="M4.74217 13.1756C4.50995 12.4911 4.37556 11.7577 4.37556 11C4.37556 10.2422 4.50995 9.50886 4.72995 8.82443L4.7238 8.67866L1.28579 6.00867L1.1733 6.06217C0.427782 7.5533 0 9.22778 0 11C0 12.7722 0.427782 14.4466 1.1733 15.9377L4.74217 13.1756Z" fill="#FBBC05"/>
<path d="M11.0001 4.2533C13.0657 4.2533 14.459 5.14552 15.2534 5.89113L18.3579 2.86C16.4513 1.08778 13.9701 0 11.0001 0C6.69789 0 2.98233 2.46887 1.17346 6.06217L4.73011 8.82443C5.62241 6.17221 8.09127 4.2533 11.0001 4.2533Z" fill="#EB4335"/>
</svg>
