<svg width="44" height="44" viewBox="0 0 44 44" fill="none" xmlns="http://www.w3.org/2000/svg">
<path d="M37.125 6.875H6.875C6.14565 6.875 5.44618 7.16473 4.93046 7.68046C4.41473 8.19618 4.125 8.89565 4.125 9.625V34.375C4.125 35.1043 4.41473 35.8038 4.93046 36.3195C5.44618 36.8353 6.14565 37.125 6.875 37.125H37.125C37.8543 37.125 38.5538 36.8353 39.0695 36.3195C39.5853 35.8038 39.875 35.1043 39.875 34.375V9.625C39.875 8.89565 39.5853 8.19618 39.0695 7.68046C38.5538 7.16473 37.8543 6.875 37.125 6.875ZM37.125 9.625V27.2852L32.6442 22.8061C32.3888 22.5507 32.0857 22.348 31.752 22.2098C31.4183 22.0716 31.0606 22.0004 30.6995 22.0004C30.3383 22.0004 29.9806 22.0716 29.6469 22.2098C29.3132 22.348 29.0101 22.5507 28.7547 22.8061L25.3172 26.2436L17.7547 18.6811C17.239 18.1658 16.5398 17.8763 15.8108 17.8763C15.0817 17.8763 14.3825 18.1658 13.8669 18.6811L6.875 25.673V9.625H37.125ZM6.875 29.5625L15.8125 20.625L29.5625 34.375H6.875V29.5625ZM37.125 34.375H33.452L27.2645 28.1875L30.702 24.75L37.125 31.1747V34.375ZM24.75 17.1875C24.75 16.7796 24.871 16.3808 25.0976 16.0416C25.3242 15.7025 25.6463 15.4381 26.0232 15.282C26.4001 15.1259 26.8148 15.085 27.2149 15.1646C27.615 15.2442 27.9825 15.4406 28.2709 15.7291C28.5594 16.0175 28.7558 16.385 28.8354 16.7851C28.915 17.1852 28.8741 17.5999 28.718 17.9768C28.5619 18.3537 28.2975 18.6758 27.9584 18.9024C27.6192 19.129 27.2204 19.25 26.8125 19.25C26.2655 19.25 25.7409 19.0327 25.3541 18.6459C24.9673 18.2591 24.75 17.7345 24.75 17.1875Z" fill="#211F25"/>
</svg>
