<svg width="14" height="14" viewBox="0 0 14 14" fill="none" xmlns="http://www.w3.org/2000/svg">
<path d="M6.84555 8.58263C7.39519 8.12063 7.78944 7.50076 7.97483 6.8071C8.16023 6.11343 8.12779 5.37952 7.88193 4.70492C7.63607 4.03031 7.18868 3.44764 6.60042 3.03592C6.01217 2.62421 5.31153 2.40338 4.59351 2.40338C3.8755 2.40338 3.17486 2.62421 2.58661 3.03592C1.99835 3.44764 1.55096 4.03031 1.3051 4.70492C1.05924 5.37952 1.0268 6.11343 1.2122 6.8071C1.39759 7.50076 1.79184 8.12063 2.34148 8.58263C1.48321 8.97071 0.739422 9.57342 0.181874 10.3326C0.0788957 10.473 0.0358793 10.6484 0.0622882 10.8205C0.0886972 10.9925 0.182368 11.147 0.322695 11.25C0.463021 11.353 0.638508 11.396 0.810551 11.3696C0.982593 11.3432 1.1371 11.2495 1.24008 11.1092C1.62603 10.5821 2.13081 10.1534 2.71345 9.85784C3.2961 9.56232 3.94021 9.40831 4.59351 9.40831C5.24682 9.40831 5.89093 9.56232 6.47358 9.85784C7.05622 10.1534 7.561 10.5821 7.94695 11.1092C8.04993 11.2496 8.20446 11.3433 8.37656 11.3698C8.54865 11.3962 8.72421 11.3533 8.86461 11.2503C9.00501 11.1473 9.09875 10.9928 9.12521 10.8207C9.15167 10.6486 9.10868 10.473 9.0057 10.3326C8.44782 9.57352 7.70389 8.97084 6.84555 8.58263ZM2.40601 5.90622C2.40601 5.47357 2.53431 5.05064 2.77468 4.69091C3.01504 4.33118 3.35668 4.0508 3.7564 3.88523C4.15611 3.71967 4.59594 3.67635 5.02028 3.76075C5.44461 3.84516 5.83438 4.0535 6.14031 4.35942C6.44624 4.66535 6.65458 5.05513 6.73898 5.47946C6.82339 5.90379 6.78007 6.34363 6.6145 6.74334C6.44894 7.14305 6.16856 7.48469 5.80883 7.72506C5.44909 7.96543 5.02616 8.09372 4.59351 8.09372C4.01335 8.09372 3.45695 7.86325 3.04672 7.45302C2.63648 7.04278 2.40601 6.48638 2.40601 5.90622ZM13.6771 11.2475C13.6076 11.2986 13.5288 11.3355 13.4451 11.356C13.3613 11.3766 13.2744 11.3805 13.1892 11.3674C13.1039 11.3544 13.0221 11.3246 12.9484 11.28C12.8747 11.2353 12.8105 11.1765 12.7595 11.107C12.3725 10.5809 11.8676 10.1529 11.2851 9.85753C10.7027 9.56214 10.0591 9.40755 9.40601 9.40622C9.23197 9.40622 9.06505 9.33708 8.94198 9.21401C8.81891 9.09094 8.74976 8.92402 8.74976 8.74997C8.74976 8.57592 8.81891 8.409 8.94198 8.28593C9.06505 8.16286 9.23197 8.09372 9.40601 8.09372C9.71693 8.09317 10.0242 8.02634 10.3072 7.89769C10.5903 7.76904 10.8427 7.58153 11.0475 7.34766C11.2524 7.11379 11.4051 6.83893 11.4954 6.54141C11.5856 6.24389 11.6115 5.93053 11.5711 5.62225C11.5307 5.31396 11.4251 5.01781 11.2613 4.75356C11.0975 4.48931 10.8792 4.26302 10.621 4.08977C10.3628 3.91653 10.0707 3.80031 9.76403 3.74887C9.45739 3.69743 9.14332 3.71195 8.84273 3.79145C8.75878 3.81574 8.67083 3.82302 8.58402 3.81285C8.49722 3.80269 8.41333 3.77529 8.33726 3.73226C8.26119 3.68923 8.19448 3.63145 8.14105 3.56229C8.08762 3.49313 8.04854 3.414 8.0261 3.32953C8.00366 3.24507 7.99832 3.15697 8.01039 3.07042C8.02246 2.98386 8.0517 2.90059 8.09639 2.82548C8.14108 2.75038 8.20032 2.68496 8.27063 2.63306C8.34095 2.58116 8.42092 2.54383 8.50586 2.52325C9.27447 2.3196 10.0895 2.38372 10.8168 2.70507C11.5441 3.02642 12.1403 3.58584 12.5073 4.29124C12.8742 4.99663 12.9901 5.80595 12.8357 6.58596C12.6814 7.36597 12.266 8.07017 11.658 8.58263C12.5163 8.97071 13.2601 9.57342 13.8177 10.3326C13.9199 10.4727 13.9625 10.6476 13.9362 10.8191C13.9098 10.9905 13.8167 11.1446 13.6771 11.2475Z" fill="#49454F"/>
</svg>
